<svg xmlns="http://www.w3.org/2000/svg" viewBox="0 14 24.399999618530273 37.5" data-asc="1.02"><g fill="#ffffff"><g fill="#ffffff" transform="translate(0, 0)"><path d="M12.25 51.50Q8.55 51.50 5.80 50.13Q3.05 48.75 1.53 46.27Q0 43.80 0 40.50L0 25Q0 21.65 1.53 19.20Q3.05 16.75 5.80 15.38Q8.55 14 12.25 14Q15.90 14 18.63 15.38Q21.35 16.75 22.88 19.20Q24.40 21.65 24.40 25L16.90 25Q16.90 22.80 15.68 21.65Q14.45 20.50 12.20 20.50Q9.95 20.50 8.73 21.65Q7.50 22.80 7.50 25L7.50 40.50Q7.50 42.65 8.73 43.83Q9.95 45 12.20 45Q14.45 45 15.68 43.83Q16.90 42.65 16.90 40.50L16.90 37.35L11.50 37.35L11.50 31L24.40 31L24.40 40.50Q24.40 43.80 22.88 46.27Q21.35 48.75 18.63 50.13Q15.90 51.50 12.25 51.50Z"/></g></g></svg>